<!DOCTYPE svg PUBLIC "-//W3C//DTD SVG 1.1//EN" "http://www.w3.org/Graphics/SVG/1.1/DTD/svg11.dtd">
<!-- Uploaded to: SVG Repo, www.svgrepo.com, Transformed by: SVG Repo Mixer Tools -->
<svg width="256px" height="256px" viewBox="-512 -512 2048.00 2048.00" class="icon" version="1.1" xmlns="http://www.w3.org/2000/svg" fill="#ffffff" stroke="#ffffff">
<g id="SVGRepo_bgCarrier" stroke-width="0">
<path transform="translate(-512, -512), scale(64)" d="M16,29.663801815360785C18.228881357241796,29.091777281944715,17.445185880921557,24.884476198074484,19.463734398757975,23.77967483464742C21.242669824818307,22.806019623096326,23.732467046832884,25.59511675716289,25.438095589307338,24.498099439081933C26.91695917605381,23.546931628893567,25.41133225090318,20.853570377804225,26.337277472932946,19.35878505638064C27.643321532561284,17.25039306620938,32.15662521634753,16.78960352071838,31.726124295260682,14.347117732253652C31.27573200293643,11.791776455726822,26.90016044477583,12.477428858321499,24.84517958811474,10.893233183771375C23.658465148647096,9.978388709265953,23.643988049487362,8.027762666274075,22.415646164480634,7.1696206110686305C21.18895292719109,6.312630331242339,19.51237885057051,6.6341291382045116,18.088775109747708,6.173085726751783C16.50086658105663,5.658831131776157,15.088011010557523,3.741601935751721,13.509999462444375,4.285468498398252C11.839578998145296,4.8611840799344295,12.302910495459708,7.955619629159234,10.708410118683517,8.716751356807787C8.595891568093702,9.725158076253633,5.7883589416214996,7.757793223480303,3.7660486734365666,8.936724908355814C1.9698594499400892,9.983836432697977,0.6042258316428453,12.363071349020863,0.9316301641501514,14.416250511702604C1.2895014611300688,16.660490483281663,4.345733543377092,17.43924836073929,5.439536438469512,19.43130261249116C6.2882082927961065,20.976919636672278,5.267071384849435,23.293155791923255,6.49866580083682,24.555039739151894C7.743750852418094,25.83074610736008,10.07255305689547,24.94271968529668,11.642587109376885,25.786909591423765C13.37381939614337,26.717774001236858,14.096078217260041,30.152428078887098,16,29.663801815360785" fill="#e6e1ff" strokewidth="0"/>
</g>
<g id="SVGRepo_tracerCarrier" stroke-linecap="round" stroke-linejoin="round"/>
<g id="SVGRepo_iconCarrier">
<path d="M511.99488 513.32096m-460.416 0a460.416 460.416 0 1 0 920.832 0 460.416 460.416 0 1 0-920.832 0Z" fill="#a078ff"/>
<path d="M512 983.35744c-259.17952 0-470.0416-210.85696-470.0416-470.0416S252.82048 43.27936 512 43.27936s470.0416 210.85696 470.0416 470.0416-210.86208 470.03648-470.0416 470.03648z m0-920.82688c-248.57088 0-450.7904 202.21952-450.7904 450.7904S263.42912 964.10624 512 964.10624s450.7904-202.21952 450.7904-450.7904S760.57088 62.53056 512 62.53056z" fill="#fffffffffff"/>
<path d="M237.83424 617.3184c0 137.46176 61.90592 260.2496 158.99648 341.30944 36.86912 9.51296 75.3152 15.104 115.15904 15.104 254.2848 0 460.42112-206.13632 460.42112-460.416 0-110.39744-38.94272-211.64544-103.72096-290.96448-58.7008-29.824-124.72832-47.01696-194.8672-47.01696-240.78336 0.00512-435.98848 197.888-435.98848 441.984z" fill="#b496ff"/>
<path d="M511.98976 983.35744c-38.38464 0-77.93664-5.18656-117.56544-15.4112l-2.0992-0.54272-1.66912-1.39264c-103.23968-86.19008-162.44736-213.28896-162.44736-348.69248 0-249.01632 199.90016-451.60448 445.61408-451.60448 69.43232 0 136.45312 16.17408 199.22944 48.05632l1.80736 0.92672 1.28512 1.57184c68.28544 83.61472 105.89696 189.10208 105.89696 297.04704 0 259.18464-210.8672 470.0416-470.05184 470.0416z m-110.65344-33.5104c37.36064 9.46176 74.57792 14.26432 110.65856 14.26432 248.57088 0 450.79552-202.21952 450.79552-450.7904 0-102.84032-35.59424-203.36128-100.27008-283.29472-59.51488-29.9008-122.99264-45.056-188.69248-45.056-235.10016 0-426.36288 193.95072-426.36288 432.35328-0.00512 128.9472 56.04864 250.01984 153.87136 332.52352z" fill="#ffffff"/>
<path d="M335.7184 356.42368m-91.58656 0a91.58656 91.58656 0 1 0 183.17312 0 91.58656 91.58656 0 1 0-183.17312 0Z" fill="#b496ff"/>
<path d="M335.7184 457.63584c-55.808 0-101.21728-45.39904-101.21728-101.21216 0-55.808 45.40928-101.21216 101.21728-101.21216s101.21216 45.40416 101.21216 101.21216-45.39904 101.21216-101.21216 101.21216z m0-183.17312c-45.19936 0-81.9712 36.7616-81.9712 81.96096s36.77184 81.96096 81.9712 81.96096 81.96096-36.7616 81.96096-81.96096-36.7616-81.96096-81.96096-81.96096z" fill="#ffffff"/>
<path d="M624.71168 190.73024m-50.42176 0a50.42176 50.42176 0 1 0 100.84352 0 50.42176 50.42176 0 1 0-100.84352 0Z" fill="#b496ff"/>
<path d="M624.70656 250.7776c-33.10592 0-60.04736-26.94144-60.04736-60.04736s26.94144-60.04736 60.04736-60.04736 60.04736 26.94144 60.04736 60.04736-26.94144 60.04736-60.04736 60.04736z m0-100.84352c-22.49216 0-40.79616 18.304-40.79616 40.79616s18.304 40.79616 40.79616 40.79616 40.79616-18.304 40.79616-40.79616-18.29888-40.79616-40.79616-40.79616z" fill="#ffffff"/>
<path d="M375.695406 157.423063a27.10528 38.912 70.009 1 0 73.134819-26.605888 27.10528 38.912 70.009 1 0-73.134819 26.605888Z" fill="#b496ff"/>
<path d="M403.57376 182.50752c-17.8944 0-32.04096-8.34048-36.92544-21.77024-3.5328-9.7024-1.59232-20.91008 5.33504-30.74048 6.28224-8.91392 16.128-16.14848 27.7248-20.37248a62.01856 62.01856 0 0 1 21.23776-3.85536c17.8944 0 32.04608 8.35072 36.92544 21.78048 3.5328 9.7024 1.59232 20.91008-5.33504 30.74048-6.28224 8.91392-16.128 16.14848-27.7248 20.37248a62.1056 62.1056 0 0 1-21.23776 3.84512z m17.37216-57.48736a43.3664 43.3664 0 0 0-14.65344 2.69312c-7.8336 2.8416-14.59712 7.71584-18.57536 13.3632-1.90464 2.70336-4.82304 8.00256-2.97472 13.0816 3.03104 8.32512 19.07712 11.68384 33.49504 6.41536 7.82336-2.8416 14.592-7.71584 18.57024-13.3632 1.90464-2.70848 4.82304-8.00256 2.97472-13.0816-2.01216-5.53472-9.40544-9.10848-18.83648-9.10848z" fill="#ffffff"/>
<path d="M123.933714 487.038448a27.10528 38.912 30.913 1 0 39.980985-66.768974 27.10528 38.912 30.913 1 0-39.980985 66.768974Z" fill="#b496ff"/>
<path d="M134.43072 499.44064a29.568 29.568 0 0 1-15.42144-4.16768c-17.66912-10.58304-20.5568-37.16096-6.5792-60.50816 13.44-22.43072 39.41888-32.96256 56.44288-22.76864 17.66912 10.58304 20.5568 37.16096 6.5792 60.50816-9.79456 16.36352-25.89696 26.93632-41.02144 26.93632z m19.02592-72.36096c-6.9632 0-17.23904 5.4272-24.51456 17.56672-8.86784 14.81216-7.1424 29.86496-0.04608 34.11456 6.92224 4.13696 20.59776-0.36864 30.04928-16.14336 8.86784-14.81216 7.1424-29.86496 0.04608-34.11456a10.69056 10.69056 0 0 0-5.53472-1.42336z" fill="#ffffff"/>
<path d="M182.855731 743.113061a56.81664 39.5776 81.651 1 0-16.499825-112.428992 56.81664 39.5776 81.651 1 0 16.499825 112.428992Z" fill="#b496ff"/>
<path d="M178.7904 753.05472c-25.19552 0-47.9232-25.35936-52.864-58.98752-5.4016-36.864 11.7504-68.87424 39.03488-72.89344 27.31008-3.93728 53.0432 22.53824 58.33216 58.5984 2.4832 16.94208 0.16384 33.67936-6.54848 47.12448-7.28576 14.60736-18.82112 23.75168-32.4864 25.75872a37.888 37.888 0 0 1-5.46816 0.39936z m-8.35584-113.02912a18.1248 18.1248 0 0 0-2.67776 0.19456c-16.05632 2.3552-26.496 25.73312-22.784 51.0464 3.70688 25.22624 20.16768 44.74368 36.49536 42.33728 7.24992-1.06496 13.66016-6.49216 18.05312-15.29344 4.9664-9.96352 6.65088-22.656 4.72064-35.75296-3.49184-23.84896-18.34496-42.53184-33.80736-42.53184z" fill="#ffffff"/>
<path d="M389.66784 299.93984a75.56608 75.56608 0 0 1 13.11232 42.52672c0 42.84928-35.76832 77.58336-79.89248 77.58336a80.8448 80.8448 0 0 1-53.33504-19.93728c14.27968 21.09952 38.8352 35.05664 66.78016 35.05664 44.12416 0 79.89248-34.73408 79.89248-77.58336 0-22.91712-10.2912-43.4432-26.55744-57.64608zM529.92512 621.89568c9.89696 14.32064 15.6928 31.43168 15.6928 49.85344 0 50.23232-42.81856 90.94656-95.63648 90.94656-24.57088 0-46.90432-8.88832-63.8464-23.3728 17.09056 24.73472 46.4896 41.09824 79.93856 41.09824 52.81792 0 95.63648-40.71936 95.63648-90.94656 0.00512-26.86464-12.3136-50.92864-31.78496-67.57888zM201.87648 682.0608c-3.23584-24.06912-18.31424-41.58976-33.67936-39.12704-0.5632 0.09216-1.10592 0.26112-1.65376 0.39936 12.4928 3.14368 23.45984 18.62656 26.1632 38.72768 3.11808 23.18848-5.90848 43.94496-20.30592 47.6416 2.46784 0.61952 4.98688 0.80384 7.51616 0.39936 15.36512-2.46272 25.20064-23.97184 21.95968-48.04096zM159.8976 463.40096c6.62016-11.8272 4.07552-26.5216-5.6832-32.81408-0.3584-0.2304-0.73216-0.41984-1.1008-0.61952 6.1184 7.31136 7.00416 19.16928 1.47456 29.05088-6.3744 11.39712-18.92352 15.9488-28.55936 10.64448 1.20832 1.44384 2.60096 2.72896 4.20864 3.7632 9.75872 6.29248 23.04 1.80736 29.66016-10.02496zM418.29888 158.20288c12.62592-5.4784 19.87584-16.26112 16.18944-24.07424-0.13312-0.28672-0.31232-0.54784-0.47104-0.8192 0.19456 7.15776-6.57408 15.42144-17.11616 19.99872-12.16512 5.27872-24.85248 3.69664-29.06624-3.40992 0.04096 1.41312 0.32256 2.78528 0.93184 4.07552 3.67616 7.81824 16.90112 9.71264 29.53216 4.22912zM650.5216 164.25984a39.8592 39.8592 0 0 1 5.79072 20.8128c0 20.97152-15.7952 37.96992-35.28192 37.96992-9.06752 0-17.3056-3.712-23.55712-9.75872 6.30784 10.32704 17.152 17.15712 29.4912 17.15712 19.48672 0 35.28192-16.9984 35.28192-37.96992 0-11.2128-4.54144-21.26336-11.7248-28.2112zM790.64064 408.32512a40.7552 40.7552 0 0 1 6.74304 22.49216c0 22.66112-18.40128 41.03168-41.09312 41.03168a40.92416 40.92416 0 0 1-27.43296-10.54208 41.04704 41.04704 0 0 0 34.35008 18.53952c22.69696 0 41.09312-18.37056 41.09312-41.03168a40.8576 40.8576 0 0 0-13.66016-30.4896z" fill="#b496ff"/>
</g>
</svg>